<?xml version="1.0" encoding="utf-8" standalone="no"?>
<!DOCTYPE svg PUBLIC "-//W3C//DTD SVG 1.1//EN"
  "http://www.w3.org/Graphics/SVG/1.1/DTD/svg11.dtd">
<svg xmlns:xlink="http://www.w3.org/1999/xlink" width="460.8pt" height="345.6pt" viewBox="0 0 460.8 345.6" xmlns="http://www.w3.org/2000/svg" version="1.1">
 <metadata>
  <rdf:RDF xmlns:dc="http://purl.org/dc/elements/1.1/" xmlns:cc="http://creativecommons.org/ns#" xmlns:rdf="http://www.w3.org/1999/02/22-rdf-syntax-ns#">
   <cc:Work>
    <dc:type rdf:resource="http://purl.org/dc/dcmitype/StillImage"/>
    <dc:date>2024-03-02T02:24:24.453741</dc:date>
    <dc:format>image/svg+xml</dc:format>
    <dc:creator>
     <cc:Agent>
      <dc:title>Matplotlib v3.8.2, https://matplotlib.org/</dc:title>
     </cc:Agent>
    </dc:creator>
   </cc:Work>
  </rdf:RDF>
 </metadata>
 <defs>
  <style type="text/css">*{stroke-linejoin: round; stroke-linecap: butt}</style>
 </defs>
 <g id="figure_1">
  <g id="patch_1">
   <path d="M 0 345.6 
L 460.8 345.6 
L 460.8 0 
L 0 0 
z
" style="fill: #ffffff"/>
  </g>
  <g id="axes_1">
   <g id="patch_2">
    <path d="M 57.6 307.584 
L 414.72 307.584 
L 414.72 41.472 
L 57.6 41.472 
z
" style="fill: #ffffff"/>
   </g>
   <g id="PolyCollection_1">
    <path d="M 57.6 53.568 
L 57.6 266.818134 
L 59.394573 266.818134 
L 61.189146 266.818134 
L 62.983719 266.818134 
L 64.778291 266.818134 
L 66.572864 266.818134 
L 68.367437 266.818134 
L 70.16201 266.818134 
L 71.956583 266.818134 
L 73.751156 266.818134 
L 75.545729 266.818134 
L 77.340302 266.818134 
L 79.134874 266.818134 
L 80.929447 266.818134 
L 82.72402 266.818134 
L 84.518593 266.818134 
L 86.313166 266.818134 
L 88.107739 266.818134 
L 89.902312 266.818134 
L 91.696884 266.818134 
L 93.491457 266.818134 
L 95.28603 266.818134 
L 97.080603 266.818134 
L 98.875176 266.818134 
L 100.669749 266.818134 
L 102.464322 266.818134 
L 104.258894 266.818134 
L 106.053467 266.818134 
L 107.84804 266.818134 
L 109.642613 266.818134 
L 111.437186 266.818134 
L 113.231759 266.818134 
L 115.026332 266.818134 
L 116.820905 266.818134 
L 118.615477 266.818134 
L 120.41005 266.818134 
L 122.204623 266.818134 
L 123.999196 266.818134 
L 125.793769 266.818134 
L 127.588342 266.818134 
L 129.382915 266.818134 
L 131.177487 266.818134 
L 132.97206 266.818134 
L 134.766633 266.818134 
L 136.561206 266.818134 
L 138.355779 266.818134 
L 140.150352 266.818134 
L 141.944925 266.818134 
L 143.739497 266.818134 
L 145.53407 266.818134 
L 147.328643 266.818134 
L 149.123216 266.818134 
L 150.917789 266.818134 
L 152.712362 266.818134 
L 154.506935 266.818134 
L 156.301508 266.818134 
L 158.09608 266.818134 
L 159.890653 266.818134 
L 161.685226 266.818134 
L 163.479799 266.818134 
L 165.274372 266.818134 
L 167.068945 266.818134 
L 168.863518 266.818134 
L 170.65809 266.818134 
L 172.452663 266.818134 
L 174.247236 266.818134 
L 176.041809 266.818134 
L 177.836382 266.818134 
L 179.630955 266.818134 
L 181.425528 266.818134 
L 183.220101 266.818134 
L 185.014673 266.818134 
L 186.809246 266.818134 
L 188.603819 266.818134 
L 190.398392 266.818134 
L 192.192965 266.818134 
L 193.987538 266.818134 
L 195.782111 266.818134 
L 197.576683 266.818134 
L 199.371256 266.818134 
L 201.165829 266.818134 
L 202.960402 266.818134 
L 204.754975 266.818134 
L 206.549548 266.818134 
L 208.344121 266.818134 
L 210.138693 266.818134 
L 211.933266 266.818134 
L 213.727839 266.818134 
L 215.522412 266.818134 
L 217.316985 266.818134 
L 219.111558 266.818134 
L 220.906131 266.818134 
L 222.700704 266.818134 
L 224.495276 266.818134 
L 226.289849 266.818134 
L 228.084422 266.818134 
L 229.878995 266.818134 
L 231.673568 266.818134 
L 233.468141 266.818134 
L 235.262714 266.818134 
L 237.057286 266.818134 
L 238.851859 266.818134 
L 240.646432 266.818134 
L 242.441005 266.818134 
L 244.235578 266.818134 
L 246.030151 266.818134 
L 247.824724 266.818134 
L 249.619296 266.818134 
L 251.413869 266.818134 
L 253.208442 266.818134 
L 255.003015 266.818134 
L 256.797588 266.818134 
L 258.592161 266.818134 
L 260.386734 266.818134 
L 262.181307 266.818134 
L 263.975879 266.818134 
L 265.770452 266.818134 
L 267.565025 266.818134 
L 269.359598 266.818134 
L 271.154171 266.818134 
L 272.948744 266.818134 
L 274.743317 266.818134 
L 276.537889 266.818134 
L 278.332462 266.818134 
L 280.127035 266.818134 
L 281.921608 266.818134 
L 283.716181 266.818134 
L 285.510754 266.818134 
L 287.305327 266.818134 
L 289.099899 266.818134 
L 290.894472 266.818134 
L 292.689045 266.818134 
L 294.483618 266.818134 
L 296.278191 266.818134 
L 298.072764 266.818134 
L 299.867337 266.818134 
L 301.66191 266.818134 
L 303.456482 266.818134 
L 305.251055 266.818134 
L 307.045628 266.818134 
L 308.840201 266.818134 
L 310.634774 266.818134 
L 312.429347 266.818134 
L 314.22392 266.818134 
L 316.018492 266.818134 
L 317.813065 266.818134 
L 319.607638 266.818134 
L 321.402211 266.818134 
L 323.196784 266.818134 
L 324.991357 266.818134 
L 326.78593 266.818134 
L 328.580503 266.818134 
L 330.375075 266.818134 
L 332.169648 266.818134 
L 333.964221 266.818134 
L 335.758794 266.818134 
L 337.553367 266.818134 
L 339.34794 266.818134 
L 341.142513 266.818134 
L 342.937085 266.818134 
L 344.731658 266.818134 
L 346.526231 266.818134 
L 348.320804 266.818134 
L 350.115377 266.818134 
L 351.90995 266.818134 
L 353.704523 266.818134 
L 355.499095 266.818134 
L 357.293668 266.818134 
L 359.088241 266.818134 
L 360.882814 266.818134 
L 362.677387 266.818134 
L 364.47196 266.818134 
L 366.266533 266.818134 
L 368.061106 266.818134 
L 369.855678 266.818134 
L 371.650251 266.818134 
L 373.444824 266.818134 
L 375.239397 266.818134 
L 377.03397 266.818134 
L 378.828543 266.818134 
L 378.828543 252.881418 
L 378.828543 252.881418 
L 377.03397 252.881418 
L 375.239397 252.881418 
L 373.444824 252.881418 
L 371.650251 252.881418 
L 369.855678 252.881418 
L 368.061106 252.881418 
L 366.266533 252.881418 
L 364.47196 252.881418 
L 362.677387 252.881418 
L 360.882814 252.881418 
L 359.088241 252.881418 
L 357.293668 252.881418 
L 355.499095 252.881418 
L 353.704523 252.881418 
L 351.90995 252.881418 
L 350.115377 252.881418 
L 348.320804 252.881418 
L 346.526231 252.881418 
L 344.731658 252.881418 
L 342.937085 252.881418 
L 341.142513 252.881418 
L 339.34794 252.881418 
L 337.553367 252.881418 
L 335.758794 252.881418 
L 333.964221 252.881418 
L 332.169648 252.881418 
L 330.375075 252.881418 
L 328.580503 252.881418 
L 326.78593 252.881418 
L 324.991357 252.881418 
L 323.196784 252.881418 
L 321.402211 213.79341 
L 319.607638 213.79341 
L 317.813065 213.79341 
L 316.018492 213.79341 
L 314.22392 213.79341 
L 312.429347 213.79341 
L 310.634774 213.79341 
L 308.840201 213.79341 
L 307.045628 213.79341 
L 305.251055 213.79341 
L 303.456482 213.79341 
L 301.66191 213.79341 
L 299.867337 213.79341 
L 298.072764 213.79341 
L 296.278191 213.79341 
L 294.483618 213.79341 
L 292.689045 213.79341 
L 290.894472 213.79341 
L 289.099899 213.79341 
L 287.305327 213.79341 
L 285.510754 213.79341 
L 283.716181 213.79341 
L 281.921608 213.79341 
L 280.127035 213.79341 
L 278.332462 213.79341 
L 276.537889 213.79341 
L 274.743317 213.79341 
L 272.948744 213.79341 
L 271.154171 213.79341 
L 269.359598 213.79341 
L 267.565025 213.79341 
L 265.770452 213.79341 
L 263.975879 213.79341 
L 262.181307 213.79341 
L 260.386734 213.79341 
L 258.592161 213.79341 
L 256.797588 213.79341 
L 255.003015 213.79341 
L 253.208442 213.79341 
L 251.413869 213.79341 
L 249.619296 213.79341 
L 247.824724 213.79341 
L 246.030151 213.79341 
L 244.235578 213.79341 
L 242.441005 213.79341 
L 240.646432 213.79341 
L 238.851859 211.682802 
L 237.057286 211.682802 
L 235.262714 211.682802 
L 233.468141 211.682802 
L 231.673568 211.682802 
L 229.878995 211.682802 
L 228.084422 211.682802 
L 226.289849 211.682802 
L 224.495276 211.682802 
L 222.700704 211.682802 
L 220.906131 211.682802 
L 219.111558 211.682802 
L 217.316985 211.682802 
L 215.522412 211.682802 
L 213.727839 211.682802 
L 211.933266 211.682802 
L 210.138693 211.682802 
L 208.344121 211.682802 
L 206.549548 211.682802 
L 204.754975 211.682802 
L 202.960402 211.682802 
L 201.165829 211.682802 
L 199.371256 211.682802 
L 197.576683 211.682802 
L 195.782111 211.682802 
L 193.987538 211.682802 
L 192.192965 211.682802 
L 190.398392 211.682802 
L 188.603819 207.916192 
L 186.809246 207.916192 
L 185.014673 207.916192 
L 183.220101 207.916192 
L 181.425528 207.916192 
L 179.630955 207.916192 
L 177.836382 207.916192 
L 176.041809 207.916192 
L 174.247236 207.916192 
L 172.452663 207.916192 
L 170.65809 207.916192 
L 168.863518 207.916192 
L 167.068945 207.916192 
L 165.274372 207.916192 
L 163.479799 207.916192 
L 161.685226 207.916192 
L 159.890653 207.916192 
L 158.09608 207.916192 
L 156.301508 207.916192 
L 154.506935 207.916192 
L 152.712362 207.916192 
L 150.917789 207.916192 
L 149.123216 207.916192 
L 147.328643 207.916192 
L 145.53407 207.916192 
L 143.739497 207.916192 
L 141.944925 207.916192 
L 140.150352 207.916192 
L 138.355779 207.916192 
L 136.561206 207.916192 
L 134.766633 207.916192 
L 132.97206 207.278531 
L 131.177487 207.278531 
L 129.382915 207.278531 
L 127.588342 176.031568 
L 125.793769 176.031568 
L 123.999196 176.031568 
L 122.204623 176.031568 
L 120.41005 176.031568 
L 118.615477 175.251536 
L 116.820905 188.667595 
L 115.026332 188.667595 
L 113.231759 188.667595 
L 111.437186 188.667595 
L 109.642613 188.667595 
L 107.84804 188.664534 
L 106.053467 188.664534 
L 104.258894 188.664534 
L 102.464322 170.352397 
L 100.669749 168.564053 
L 98.875176 168.564053 
L 97.080603 168.564053 
L 95.28603 168.564053 
L 93.491457 166.665591 
L 91.696884 166.665591 
L 89.902312 154.602038 
L 88.107739 153.686505 
L 86.313166 153.737176 
L 84.518593 153.231193 
L 82.72402 152.78109 
L 80.929447 133.593742 
L 79.134874 105.101457 
L 77.340302 105.101457 
L 75.545729 100.905326 
L 73.751156 100.412091 
L 71.956583 100.141896 
L 70.16201 99.787708 
L 68.367437 98.987364 
L 66.572864 87.074981 
L 64.778291 86.180969 
L 62.983719 80.952707 
L 61.189146 76.871253 
L 59.394573 71.192335 
L 57.6 53.568 
z
" clip-path="url(#p1aab47fb04)" style="fill: #0000ff; fill-opacity: 0.5"/>
   </g>
   <g id="PolyCollection_2">
    <path d="M 380.623116 295.488 
L 380.623116 266.818134 
L 382.417688 266.818134 
L 384.212261 266.818134 
L 386.006834 266.818134 
L 387.801407 266.818134 
L 389.59598 266.818134 
L 391.390553 266.818134 
L 393.185126 266.818134 
L 394.979698 266.818134 
L 396.774271 266.818134 
L 398.568844 266.818134 
L 400.363417 266.818134 
L 402.15799 266.818134 
L 403.952563 266.818134 
L 405.747136 266.818134 
L 407.541709 266.818134 
L 409.336281 266.818134 
L 411.130854 266.818134 
L 412.925427 266.818134 
L 414.72 266.818134 
L 414.72 295.488 
L 414.72 295.488 
L 412.925427 295.488 
L 411.130854 295.488 
L 409.336281 295.488 
L 407.541709 295.488 
L 405.747136 295.488 
L 403.952563 295.488 
L 402.15799 295.488 
L 400.363417 295.488 
L 398.568844 295.488 
L 396.774271 295.488 
L 394.979698 295.488 
L 393.185126 295.488 
L 391.390553 295.488 
L 389.59598 295.488 
L 387.801407 295.488 
L 386.006834 295.488 
L 384.212261 295.488 
L 382.417688 295.488 
L 380.623116 295.488 
z
" clip-path="url(#p1aab47fb04)" style="fill: #ff0000; fill-opacity: 0.5"/>
   </g>
   <g id="matplotlib.axis_1">
    <g id="xtick_1">
     <g id="line2d_1">
      <defs>
       <path id="mfc4092d2d4" d="M 0 0 
L 0 3.5 
" style="stroke: #000000; stroke-width: 0.8"/>
      </defs>
      <g>
       <use xlink:href="#mfc4092d2d4" x="57.6" y="307.584" style="stroke: #000000; stroke-width: 0.8"/>
      </g>
     </g>
     <g id="text_1">
      <!-- 0.00 -->
      <g transform="translate(46.467188 322.182437) scale(0.1 -0.1)">
       <defs>
        <path id="DejaVuSans-30" d="M 2034 4250 
Q 1547 4250 1301 3770 
Q 1056 3291 1056 2328 
Q 1056 1369 1301 889 
Q 1547 409 2034 409 
Q 2525 409 2770 889 
Q 3016 1369 3016 2328 
Q 3016 3291 2770 3770 
Q 2525 4250 2034 4250 
z
M 2034 4750 
Q 2819 4750 3233 4129 
Q 3647 3509 3647 2328 
Q 3647 1150 3233 529 
Q 2819 -91 2034 -91 
Q 1250 -91 836 529 
Q 422 1150 422 2328 
Q 422 3509 836 4129 
Q 1250 4750 2034 4750 
z
" transform="scale(0.015625)"/>
        <path id="DejaVuSans-2e" d="M 684 794 
L 1344 794 
L 1344 0 
L 684 0 
L 684 794 
z
" transform="scale(0.015625)"/>
       </defs>
       <use xlink:href="#DejaVuSans-30"/>
       <use xlink:href="#DejaVuSans-2e" x="63.623047"/>
       <use xlink:href="#DejaVuSans-30" x="95.410156"/>
       <use xlink:href="#DejaVuSans-30" x="159.033203"/>
      </g>
     </g>
    </g>
    <g id="xtick_2">
     <g id="line2d_2">
      <g>
       <use xlink:href="#mfc4092d2d4" x="129.024" y="307.584" style="stroke: #000000; stroke-width: 0.8"/>
      </g>
     </g>
     <g id="text_2">
      <!-- 0.02 -->
      <g transform="translate(117.891188 322.182437) scale(0.1 -0.1)">
       <defs>
        <path id="DejaVuSans-32" d="M 1228 531 
L 3431 531 
L 3431 0 
L 469 0 
L 469 531 
Q 828 903 1448 1529 
Q 2069 2156 2228 2338 
Q 2531 2678 2651 2914 
Q 2772 3150 2772 3378 
Q 2772 3750 2511 3984 
Q 2250 4219 1831 4219 
Q 1534 4219 1204 4116 
Q 875 4013 500 3803 
L 500 4441 
Q 881 4594 1212 4672 
Q 1544 4750 1819 4750 
Q 2544 4750 2975 4387 
Q 3406 4025 3406 3419 
Q 3406 3131 3298 2873 
Q 3191 2616 2906 2266 
Q 2828 2175 2409 1742 
Q 1991 1309 1228 531 
z
" transform="scale(0.015625)"/>
       </defs>
       <use xlink:href="#DejaVuSans-30"/>
       <use xlink:href="#DejaVuSans-2e" x="63.623047"/>
       <use xlink:href="#DejaVuSans-30" x="95.410156"/>
       <use xlink:href="#DejaVuSans-32" x="159.033203"/>
      </g>
     </g>
    </g>
    <g id="xtick_3">
     <g id="line2d_3">
      <g>
       <use xlink:href="#mfc4092d2d4" x="200.448" y="307.584" style="stroke: #000000; stroke-width: 0.8"/>
      </g>
     </g>
     <g id="text_3">
      <!-- 0.04 -->
      <g transform="translate(189.315187 322.182437) scale(0.1 -0.1)">
       <defs>
        <path id="DejaVuSans-34" d="M 2419 4116 
L 825 1625 
L 2419 1625 
L 2419 4116 
z
M 2253 4666 
L 3047 4666 
L 3047 1625 
L 3713 1625 
L 3713 1100 
L 3047 1100 
L 3047 0 
L 2419 0 
L 2419 1100 
L 313 1100 
L 313 1709 
L 2253 4666 
z
" transform="scale(0.015625)"/>
       </defs>
       <use xlink:href="#DejaVuSans-30"/>
       <use xlink:href="#DejaVuSans-2e" x="63.623047"/>
       <use xlink:href="#DejaVuSans-30" x="95.410156"/>
       <use xlink:href="#DejaVuSans-34" x="159.033203"/>
      </g>
     </g>
    </g>
    <g id="xtick_4">
     <g id="line2d_4">
      <g>
       <use xlink:href="#mfc4092d2d4" x="271.872" y="307.584" style="stroke: #000000; stroke-width: 0.8"/>
      </g>
     </g>
     <g id="text_4">
      <!-- 0.06 -->
      <g transform="translate(260.739188 322.182437) scale(0.1 -0.1)">
       <defs>
        <path id="DejaVuSans-36" d="M 2113 2584 
Q 1688 2584 1439 2293 
Q 1191 2003 1191 1497 
Q 1191 994 1439 701 
Q 1688 409 2113 409 
Q 2538 409 2786 701 
Q 3034 994 3034 1497 
Q 3034 2003 2786 2293 
Q 2538 2584 2113 2584 
z
M 3366 4563 
L 3366 3988 
Q 3128 4100 2886 4159 
Q 2644 4219 2406 4219 
Q 1781 4219 1451 3797 
Q 1122 3375 1075 2522 
Q 1259 2794 1537 2939 
Q 1816 3084 2150 3084 
Q 2853 3084 3261 2657 
Q 3669 2231 3669 1497 
Q 3669 778 3244 343 
Q 2819 -91 2113 -91 
Q 1303 -91 875 529 
Q 447 1150 447 2328 
Q 447 3434 972 4092 
Q 1497 4750 2381 4750 
Q 2619 4750 2861 4703 
Q 3103 4656 3366 4563 
z
" transform="scale(0.015625)"/>
       </defs>
       <use xlink:href="#DejaVuSans-30"/>
       <use xlink:href="#DejaVuSans-2e" x="63.623047"/>
       <use xlink:href="#DejaVuSans-30" x="95.410156"/>
       <use xlink:href="#DejaVuSans-36" x="159.033203"/>
      </g>
     </g>
    </g>
    <g id="xtick_5">
     <g id="line2d_5">
      <g>
       <use xlink:href="#mfc4092d2d4" x="343.296" y="307.584" style="stroke: #000000; stroke-width: 0.8"/>
      </g>
     </g>
     <g id="text_5">
      <!-- 0.08 -->
      <g transform="translate(332.163187 322.182437) scale(0.1 -0.1)">
       <defs>
        <path id="DejaVuSans-38" d="M 2034 2216 
Q 1584 2216 1326 1975 
Q 1069 1734 1069 1313 
Q 1069 891 1326 650 
Q 1584 409 2034 409 
Q 2484 409 2743 651 
Q 3003 894 3003 1313 
Q 3003 1734 2745 1975 
Q 2488 2216 2034 2216 
z
M 1403 2484 
Q 997 2584 770 2862 
Q 544 3141 544 3541 
Q 544 4100 942 4425 
Q 1341 4750 2034 4750 
Q 2731 4750 3128 4425 
Q 3525 4100 3525 3541 
Q 3525 3141 3298 2862 
Q 3072 2584 2669 2484 
Q 3125 2378 3379 2068 
Q 3634 1759 3634 1313 
Q 3634 634 3220 271 
Q 2806 -91 2034 -91 
Q 1263 -91 848 271 
Q 434 634 434 1313 
Q 434 1759 690 2068 
Q 947 2378 1403 2484 
z
M 1172 3481 
Q 1172 3119 1398 2916 
Q 1625 2713 2034 2713 
Q 2441 2713 2670 2916 
Q 2900 3119 2900 3481 
Q 2900 3844 2670 4047 
Q 2441 4250 2034 4250 
Q 1625 4250 1398 4047 
Q 1172 3844 1172 3481 
z
" transform="scale(0.015625)"/>
       </defs>
       <use xlink:href="#DejaVuSans-30"/>
       <use xlink:href="#DejaVuSans-2e" x="63.623047"/>
       <use xlink:href="#DejaVuSans-30" x="95.410156"/>
       <use xlink:href="#DejaVuSans-38" x="159.033203"/>
      </g>
     </g>
    </g>
    <g id="xtick_6">
     <g id="line2d_6">
      <g>
       <use xlink:href="#mfc4092d2d4" x="414.72" y="307.584" style="stroke: #000000; stroke-width: 0.8"/>
      </g>
     </g>
     <g id="text_6">
      <!-- 0.10 -->
      <g transform="translate(403.587188 322.182437) scale(0.1 -0.1)">
       <defs>
        <path id="DejaVuSans-31" d="M 794 531 
L 1825 531 
L 1825 4091 
L 703 3866 
L 703 4441 
L 1819 4666 
L 2450 4666 
L 2450 531 
L 3481 531 
L 3481 0 
L 794 0 
L 794 531 
z
" transform="scale(0.015625)"/>
       </defs>
       <use xlink:href="#DejaVuSans-30"/>
       <use xlink:href="#DejaVuSans-2e" x="63.623047"/>
       <use xlink:href="#DejaVuSans-31" x="95.410156"/>
       <use xlink:href="#DejaVuSans-30" x="159.033203"/>
      </g>
     </g>
    </g>
    <g id="text_7">
     <!-- STLSQ Optimizer Threshold -->
     <g transform="translate(167.744375 335.860562) scale(0.1 -0.1)">
      <defs>
       <path id="DejaVuSans-53" d="M 3425 4513 
L 3425 3897 
Q 3066 4069 2747 4153 
Q 2428 4238 2131 4238 
Q 1616 4238 1336 4038 
Q 1056 3838 1056 3469 
Q 1056 3159 1242 3001 
Q 1428 2844 1947 2747 
L 2328 2669 
Q 3034 2534 3370 2195 
Q 3706 1856 3706 1288 
Q 3706 609 3251 259 
Q 2797 -91 1919 -91 
Q 1588 -91 1214 -16 
Q 841 59 441 206 
L 441 856 
Q 825 641 1194 531 
Q 1563 422 1919 422 
Q 2459 422 2753 634 
Q 3047 847 3047 1241 
Q 3047 1584 2836 1778 
Q 2625 1972 2144 2069 
L 1759 2144 
Q 1053 2284 737 2584 
Q 422 2884 422 3419 
Q 422 4038 858 4394 
Q 1294 4750 2059 4750 
Q 2388 4750 2728 4690 
Q 3069 4631 3425 4513 
z
" transform="scale(0.015625)"/>
       <path id="DejaVuSans-54" d="M -19 4666 
L 3928 4666 
L 3928 4134 
L 2272 4134 
L 2272 0 
L 1638 0 
L 1638 4134 
L -19 4134 
L -19 4666 
z
" transform="scale(0.015625)"/>
       <path id="DejaVuSans-4c" d="M 628 4666 
L 1259 4666 
L 1259 531 
L 3531 531 
L 3531 0 
L 628 0 
L 628 4666 
z
" transform="scale(0.015625)"/>
       <path id="DejaVuSans-51" d="M 2522 4238 
Q 1834 4238 1429 3725 
Q 1025 3213 1025 2328 
Q 1025 1447 1429 934 
Q 1834 422 2522 422 
Q 3209 422 3611 934 
Q 4013 1447 4013 2328 
Q 4013 3213 3611 3725 
Q 3209 4238 2522 4238 
z
M 3406 84 
L 4238 -825 
L 3475 -825 
L 2784 -78 
Q 2681 -84 2626 -87 
Q 2572 -91 2522 -91 
Q 1538 -91 948 567 
Q 359 1225 359 2328 
Q 359 3434 948 4092 
Q 1538 4750 2522 4750 
Q 3503 4750 4090 4092 
Q 4678 3434 4678 2328 
Q 4678 1516 4351 937 
Q 4025 359 3406 84 
z
" transform="scale(0.015625)"/>
       <path id="DejaVuSans-20" transform="scale(0.015625)"/>
       <path id="DejaVuSans-4f" d="M 2522 4238 
Q 1834 4238 1429 3725 
Q 1025 3213 1025 2328 
Q 1025 1447 1429 934 
Q 1834 422 2522 422 
Q 3209 422 3611 934 
Q 4013 1447 4013 2328 
Q 4013 3213 3611 3725 
Q 3209 4238 2522 4238 
z
M 2522 4750 
Q 3503 4750 4090 4092 
Q 4678 3434 4678 2328 
Q 4678 1225 4090 567 
Q 3503 -91 2522 -91 
Q 1538 -91 948 565 
Q 359 1222 359 2328 
Q 359 3434 948 4092 
Q 1538 4750 2522 4750 
z
" transform="scale(0.015625)"/>
       <path id="DejaVuSans-70" d="M 1159 525 
L 1159 -1331 
L 581 -1331 
L 581 3500 
L 1159 3500 
L 1159 2969 
Q 1341 3281 1617 3432 
Q 1894 3584 2278 3584 
Q 2916 3584 3314 3078 
Q 3713 2572 3713 1747 
Q 3713 922 3314 415 
Q 2916 -91 2278 -91 
Q 1894 -91 1617 61 
Q 1341 213 1159 525 
z
M 3116 1747 
Q 3116 2381 2855 2742 
Q 2594 3103 2138 3103 
Q 1681 3103 1420 2742 
Q 1159 2381 1159 1747 
Q 1159 1113 1420 752 
Q 1681 391 2138 391 
Q 2594 391 2855 752 
Q 3116 1113 3116 1747 
z
" transform="scale(0.015625)"/>
       <path id="DejaVuSans-74" d="M 1172 4494 
L 1172 3500 
L 2356 3500 
L 2356 3053 
L 1172 3053 
L 1172 1153 
Q 1172 725 1289 603 
Q 1406 481 1766 481 
L 2356 481 
L 2356 0 
L 1766 0 
Q 1100 0 847 248 
Q 594 497 594 1153 
L 594 3053 
L 172 3053 
L 172 3500 
L 594 3500 
L 594 4494 
L 1172 4494 
z
" transform="scale(0.015625)"/>
       <path id="DejaVuSans-69" d="M 603 3500 
L 1178 3500 
L 1178 0 
L 603 0 
L 603 3500 
z
M 603 4863 
L 1178 4863 
L 1178 4134 
L 603 4134 
L 603 4863 
z
" transform="scale(0.015625)"/>
       <path id="DejaVuSans-6d" d="M 3328 2828 
Q 3544 3216 3844 3400 
Q 4144 3584 4550 3584 
Q 5097 3584 5394 3201 
Q 5691 2819 5691 2113 
L 5691 0 
L 5113 0 
L 5113 2094 
Q 5113 2597 4934 2840 
Q 4756 3084 4391 3084 
Q 3944 3084 3684 2787 
Q 3425 2491 3425 1978 
L 3425 0 
L 2847 0 
L 2847 2094 
Q 2847 2600 2669 2842 
Q 2491 3084 2119 3084 
Q 1678 3084 1418 2786 
Q 1159 2488 1159 1978 
L 1159 0 
L 581 0 
L 581 3500 
L 1159 3500 
L 1159 2956 
Q 1356 3278 1631 3431 
Q 1906 3584 2284 3584 
Q 2666 3584 2933 3390 
Q 3200 3197 3328 2828 
z
" transform="scale(0.015625)"/>
       <path id="DejaVuSans-7a" d="M 353 3500 
L 3084 3500 
L 3084 2975 
L 922 459 
L 3084 459 
L 3084 0 
L 275 0 
L 275 525 
L 2438 3041 
L 353 3041 
L 353 3500 
z
" transform="scale(0.015625)"/>
       <path id="DejaVuSans-65" d="M 3597 1894 
L 3597 1613 
L 953 1613 
Q 991 1019 1311 708 
Q 1631 397 2203 397 
Q 2534 397 2845 478 
Q 3156 559 3463 722 
L 3463 178 
Q 3153 47 2828 -22 
Q 2503 -91 2169 -91 
Q 1331 -91 842 396 
Q 353 884 353 1716 
Q 353 2575 817 3079 
Q 1281 3584 2069 3584 
Q 2775 3584 3186 3129 
Q 3597 2675 3597 1894 
z
M 3022 2063 
Q 3016 2534 2758 2815 
Q 2500 3097 2075 3097 
Q 1594 3097 1305 2825 
Q 1016 2553 972 2059 
L 3022 2063 
z
" transform="scale(0.015625)"/>
       <path id="DejaVuSans-72" d="M 2631 2963 
Q 2534 3019 2420 3045 
Q 2306 3072 2169 3072 
Q 1681 3072 1420 2755 
Q 1159 2438 1159 1844 
L 1159 0 
L 581 0 
L 581 3500 
L 1159 3500 
L 1159 2956 
Q 1341 3275 1631 3429 
Q 1922 3584 2338 3584 
Q 2397 3584 2469 3576 
Q 2541 3569 2628 3553 
L 2631 2963 
z
" transform="scale(0.015625)"/>
       <path id="DejaVuSans-68" d="M 3513 2113 
L 3513 0 
L 2938 0 
L 2938 2094 
Q 2938 2591 2744 2837 
Q 2550 3084 2163 3084 
Q 1697 3084 1428 2787 
Q 1159 2491 1159 1978 
L 1159 0 
L 581 0 
L 581 4863 
L 1159 4863 
L 1159 2956 
Q 1366 3272 1645 3428 
Q 1925 3584 2291 3584 
Q 2894 3584 3203 3211 
Q 3513 2838 3513 2113 
z
" transform="scale(0.015625)"/>
       <path id="DejaVuSans-73" d="M 2834 3397 
L 2834 2853 
Q 2591 2978 2328 3040 
Q 2066 3103 1784 3103 
Q 1356 3103 1142 2972 
Q 928 2841 928 2578 
Q 928 2378 1081 2264 
Q 1234 2150 1697 2047 
L 1894 2003 
Q 2506 1872 2764 1633 
Q 3022 1394 3022 966 
Q 3022 478 2636 193 
Q 2250 -91 1575 -91 
Q 1294 -91 989 -36 
Q 684 19 347 128 
L 347 722 
Q 666 556 975 473 
Q 1284 391 1588 391 
Q 1994 391 2212 530 
Q 2431 669 2431 922 
Q 2431 1156 2273 1281 
Q 2116 1406 1581 1522 
L 1381 1569 
Q 847 1681 609 1914 
Q 372 2147 372 2553 
Q 372 3047 722 3315 
Q 1072 3584 1716 3584 
Q 2034 3584 2315 3537 
Q 2597 3491 2834 3397 
z
" transform="scale(0.015625)"/>
       <path id="DejaVuSans-6f" d="M 1959 3097 
Q 1497 3097 1228 2736 
Q 959 2375 959 1747 
Q 959 1119 1226 758 
Q 1494 397 1959 397 
Q 2419 397 2687 759 
Q 2956 1122 2956 1747 
Q 2956 2369 2687 2733 
Q 2419 3097 1959 3097 
z
M 1959 3584 
Q 2709 3584 3137 3096 
Q 3566 2609 3566 1747 
Q 3566 888 3137 398 
Q 2709 -91 1959 -91 
Q 1206 -91 779 398 
Q 353 888 353 1747 
Q 353 2609 779 3096 
Q 1206 3584 1959 3584 
z
" transform="scale(0.015625)"/>
       <path id="DejaVuSans-6c" d="M 603 4863 
L 1178 4863 
L 1178 0 
L 603 0 
L 603 4863 
z
" transform="scale(0.015625)"/>
       <path id="DejaVuSans-64" d="M 2906 2969 
L 2906 4863 
L 3481 4863 
L 3481 0 
L 2906 0 
L 2906 525 
Q 2725 213 2448 61 
Q 2172 -91 1784 -91 
Q 1150 -91 751 415 
Q 353 922 353 1747 
Q 353 2572 751 3078 
Q 1150 3584 1784 3584 
Q 2172 3584 2448 3432 
Q 2725 3281 2906 2969 
z
M 947 1747 
Q 947 1113 1208 752 
Q 1469 391 1925 391 
Q 2381 391 2643 752 
Q 2906 1113 2906 1747 
Q 2906 2381 2643 2742 
Q 2381 3103 1925 3103 
Q 1469 3103 1208 2742 
Q 947 2381 947 1747 
z
" transform="scale(0.015625)"/>
      </defs>
      <use xlink:href="#DejaVuSans-53"/>
      <use xlink:href="#DejaVuSans-54" x="63.476562"/>
      <use xlink:href="#DejaVuSans-4c" x="124.560547"/>
      <use xlink:href="#DejaVuSans-53" x="180.273438"/>
      <use xlink:href="#DejaVuSans-51" x="243.75"/>
      <use xlink:href="#DejaVuSans-20" x="322.460938"/>
      <use xlink:href="#DejaVuSans-4f" x="354.248047"/>
      <use xlink:href="#DejaVuSans-70" x="432.958984"/>
      <use xlink:href="#DejaVuSans-74" x="496.435547"/>
      <use xlink:href="#DejaVuSans-69" x="535.644531"/>
      <use xlink:href="#DejaVuSans-6d" x="563.427734"/>
      <use xlink:href="#DejaVuSans-69" x="660.839844"/>
      <use xlink:href="#DejaVuSans-7a" x="688.623047"/>
      <use xlink:href="#DejaVuSans-65" x="741.113281"/>
      <use xlink:href="#DejaVuSans-72" x="802.636719"/>
      <use xlink:href="#DejaVuSans-20" x="843.75"/>
      <use xlink:href="#DejaVuSans-54" x="875.537109"/>
      <use xlink:href="#DejaVuSans-68" x="936.621094"/>
      <use xlink:href="#DejaVuSans-72" x="1000"/>
      <use xlink:href="#DejaVuSans-65" x="1038.863281"/>
      <use xlink:href="#DejaVuSans-73" x="1100.386719"/>
      <use xlink:href="#DejaVuSans-68" x="1152.486328"/>
      <use xlink:href="#DejaVuSans-6f" x="1215.865234"/>
      <use xlink:href="#DejaVuSans-6c" x="1277.046875"/>
      <use xlink:href="#DejaVuSans-64" x="1304.830078"/>
     </g>
    </g>
   </g>
   <g id="matplotlib.axis_2">
    <g id="ytick_1">
     <g id="line2d_7">
      <defs>
       <path id="m0c37e0fc3c" d="M 0 0 
L -3.5 0 
" style="stroke: #000000; stroke-width: 0.8"/>
      </defs>
      <g>
       <use xlink:href="#m0c37e0fc3c" x="57.6" y="266.818134" style="stroke: #000000; stroke-width: 0.8"/>
      </g>
     </g>
     <g id="text_8">
      <!-- 0.0 -->
      <g transform="translate(34.696875 270.617353) scale(0.1 -0.1)">
       <use xlink:href="#DejaVuSans-30"/>
       <use xlink:href="#DejaVuSans-2e" x="63.623047"/>
       <use xlink:href="#DejaVuSans-30" x="95.410156"/>
      </g>
     </g>
    </g>
    <g id="ytick_2">
     <g id="line2d_8">
      <g>
       <use xlink:href="#m0c37e0fc3c" x="57.6" y="224.157982" style="stroke: #000000; stroke-width: 0.8"/>
      </g>
     </g>
     <g id="text_9">
      <!-- 0.2 -->
      <g transform="translate(34.696875 227.957201) scale(0.1 -0.1)">
       <use xlink:href="#DejaVuSans-30"/>
       <use xlink:href="#DejaVuSans-2e" x="63.623047"/>
       <use xlink:href="#DejaVuSans-32" x="95.410156"/>
      </g>
     </g>
    </g>
    <g id="ytick_3">
     <g id="line2d_9">
      <g>
       <use xlink:href="#m0c37e0fc3c" x="57.6" y="181.497831" style="stroke: #000000; stroke-width: 0.8"/>
      </g>
     </g>
     <g id="text_10">
      <!-- 0.4 -->
      <g transform="translate(34.696875 185.297049) scale(0.1 -0.1)">
       <use xlink:href="#DejaVuSans-30"/>
       <use xlink:href="#DejaVuSans-2e" x="63.623047"/>
       <use xlink:href="#DejaVuSans-34" x="95.410156"/>
      </g>
     </g>
    </g>
    <g id="ytick_4">
     <g id="line2d_10">
      <g>
       <use xlink:href="#m0c37e0fc3c" x="57.6" y="138.837679" style="stroke: #000000; stroke-width: 0.8"/>
      </g>
     </g>
     <g id="text_11">
      <!-- 0.6 -->
      <g transform="translate(34.696875 142.636897) scale(0.1 -0.1)">
       <use xlink:href="#DejaVuSans-30"/>
       <use xlink:href="#DejaVuSans-2e" x="63.623047"/>
       <use xlink:href="#DejaVuSans-36" x="95.410156"/>
      </g>
     </g>
    </g>
    <g id="ytick_5">
     <g id="line2d_11">
      <g>
       <use xlink:href="#m0c37e0fc3c" x="57.6" y="96.177527" style="stroke: #000000; stroke-width: 0.8"/>
      </g>
     </g>
     <g id="text_12">
      <!-- 0.8 -->
      <g transform="translate(34.696875 99.976746) scale(0.1 -0.1)">
       <use xlink:href="#DejaVuSans-30"/>
       <use xlink:href="#DejaVuSans-2e" x="63.623047"/>
       <use xlink:href="#DejaVuSans-38" x="95.410156"/>
      </g>
     </g>
    </g>
    <g id="ytick_6">
     <g id="line2d_12">
      <g>
       <use xlink:href="#m0c37e0fc3c" x="57.6" y="53.517375" style="stroke: #000000; stroke-width: 0.8"/>
      </g>
     </g>
     <g id="text_13">
      <!-- 1.0 -->
      <g transform="translate(34.696875 57.316594) scale(0.1 -0.1)">
       <use xlink:href="#DejaVuSans-31"/>
       <use xlink:href="#DejaVuSans-2e" x="63.623047"/>
       <use xlink:href="#DejaVuSans-30" x="95.410156"/>
      </g>
     </g>
    </g>
    <g id="text_14">
     <!-- Score compared to model data -->
     <g transform="translate(28.617187 251.849094) rotate(-90) scale(0.1 -0.1)">
      <defs>
       <path id="DejaVuSans-63" d="M 3122 3366 
L 3122 2828 
Q 2878 2963 2633 3030 
Q 2388 3097 2138 3097 
Q 1578 3097 1268 2742 
Q 959 2388 959 1747 
Q 959 1106 1268 751 
Q 1578 397 2138 397 
Q 2388 397 2633 464 
Q 2878 531 3122 666 
L 3122 134 
Q 2881 22 2623 -34 
Q 2366 -91 2075 -91 
Q 1284 -91 818 406 
Q 353 903 353 1747 
Q 353 2603 823 3093 
Q 1294 3584 2113 3584 
Q 2378 3584 2631 3529 
Q 2884 3475 3122 3366 
z
" transform="scale(0.015625)"/>
       <path id="DejaVuSans-61" d="M 2194 1759 
Q 1497 1759 1228 1600 
Q 959 1441 959 1056 
Q 959 750 1161 570 
Q 1363 391 1709 391 
Q 2188 391 2477 730 
Q 2766 1069 2766 1631 
L 2766 1759 
L 2194 1759 
z
M 3341 1997 
L 3341 0 
L 2766 0 
L 2766 531 
Q 2569 213 2275 61 
Q 1981 -91 1556 -91 
Q 1019 -91 701 211 
Q 384 513 384 1019 
Q 384 1609 779 1909 
Q 1175 2209 1959 2209 
L 2766 2209 
L 2766 2266 
Q 2766 2663 2505 2880 
Q 2244 3097 1772 3097 
Q 1472 3097 1187 3025 
Q 903 2953 641 2809 
L 641 3341 
Q 956 3463 1253 3523 
Q 1550 3584 1831 3584 
Q 2591 3584 2966 3190 
Q 3341 2797 3341 1997 
z
" transform="scale(0.015625)"/>
      </defs>
      <use xlink:href="#DejaVuSans-53"/>
      <use xlink:href="#DejaVuSans-63" x="63.476562"/>
      <use xlink:href="#DejaVuSans-6f" x="118.457031"/>
      <use xlink:href="#DejaVuSans-72" x="179.638672"/>
      <use xlink:href="#DejaVuSans-65" x="218.501953"/>
      <use xlink:href="#DejaVuSans-20" x="280.025391"/>
      <use xlink:href="#DejaVuSans-63" x="311.8125"/>
      <use xlink:href="#DejaVuSans-6f" x="366.792969"/>
      <use xlink:href="#DejaVuSans-6d" x="427.974609"/>
      <use xlink:href="#DejaVuSans-70" x="525.386719"/>
      <use xlink:href="#DejaVuSans-61" x="588.863281"/>
      <use xlink:href="#DejaVuSans-72" x="650.142578"/>
      <use xlink:href="#DejaVuSans-65" x="689.005859"/>
      <use xlink:href="#DejaVuSans-64" x="750.529297"/>
      <use xlink:href="#DejaVuSans-20" x="814.005859"/>
      <use xlink:href="#DejaVuSans-74" x="845.792969"/>
      <use xlink:href="#DejaVuSans-6f" x="885.001953"/>
      <use xlink:href="#DejaVuSans-20" x="946.183594"/>
      <use xlink:href="#DejaVuSans-6d" x="977.970703"/>
      <use xlink:href="#DejaVuSans-6f" x="1075.382812"/>
      <use xlink:href="#DejaVuSans-64" x="1136.564453"/>
      <use xlink:href="#DejaVuSans-65" x="1200.041016"/>
      <use xlink:href="#DejaVuSans-6c" x="1261.564453"/>
      <use xlink:href="#DejaVuSans-20" x="1289.347656"/>
      <use xlink:href="#DejaVuSans-64" x="1321.134766"/>
      <use xlink:href="#DejaVuSans-61" x="1384.611328"/>
      <use xlink:href="#DejaVuSans-74" x="1445.890625"/>
      <use xlink:href="#DejaVuSans-61" x="1485.099609"/>
     </g>
    </g>
   </g>
   <g id="line2d_13">
    <path d="M 57.6 53.568 
L 59.394573 71.192335 
L 61.189146 76.871253 
L 62.983719 80.952707 
L 64.778291 86.180969 
L 66.572864 87.074981 
L 68.367437 98.987364 
L 70.16201 99.787708 
L 75.545729 100.905326 
L 77.340302 105.101457 
L 79.134874 105.101457 
L 80.929447 133.593742 
L 82.72402 152.78109 
L 86.313166 153.737176 
L 88.107739 153.686505 
L 89.902312 154.602038 
L 91.696884 166.665591 
L 93.491457 166.665591 
L 95.28603 168.564053 
L 100.669749 168.564053 
L 102.464322 170.352397 
L 104.258894 188.664534 
L 116.820905 188.667595 
L 118.615477 175.251536 
L 120.41005 176.031568 
L 127.588342 176.031568 
L 129.382915 207.278531 
L 132.97206 207.278531 
L 134.766633 207.916192 
L 188.603819 207.916192 
L 190.398392 211.682802 
L 238.851859 211.682802 
L 240.646432 213.79341 
L 321.402211 213.79341 
L 323.196784 252.881418 
L 378.828543 252.881418 
L 380.623116 295.488 
L 414.72 295.488 
L 414.72 295.488 
" clip-path="url(#p1aab47fb04)" style="fill: none; stroke: #1f77b4; stroke-width: 1.5; stroke-linecap: square"/>
   </g>
   <g id="patch_3">
    <path d="M 57.6 307.584 
L 57.6 41.472 
" style="fill: none; stroke: #000000; stroke-width: 0.8; stroke-linejoin: miter; stroke-linecap: square"/>
   </g>
   <g id="patch_4">
    <path d="M 414.72 307.584 
L 414.72 41.472 
" style="fill: none; stroke: #000000; stroke-width: 0.8; stroke-linejoin: miter; stroke-linecap: square"/>
   </g>
   <g id="patch_5">
    <path d="M 57.6 307.584 
L 414.72 307.584 
" style="fill: none; stroke: #000000; stroke-width: 0.8; stroke-linejoin: miter; stroke-linecap: square"/>
   </g>
   <g id="patch_6">
    <path d="M 57.6 41.472 
L 414.72 41.472 
" style="fill: none; stroke: #000000; stroke-width: 0.8; stroke-linejoin: miter; stroke-linecap: square"/>
   </g>
   <g id="legend_1">
    <g id="patch_7">
     <path d="M 347.715313 64.150125 
L 407.72 64.150125 
Q 409.72 64.150125 409.72 62.150125 
L 409.72 48.472 
Q 409.72 46.472 407.72 46.472 
L 347.715313 46.472 
Q 345.715313 46.472 345.715313 48.472 
L 345.715313 62.150125 
Q 345.715313 64.150125 347.715313 64.150125 
z
" style="fill: #ffffff; opacity: 0.8; stroke: #cccccc; stroke-linejoin: miter"/>
    </g>
    <g id="line2d_14">
     <path d="M 349.715313 54.570438 
L 359.715313 54.570438 
L 369.715313 54.570438 
" style="fill: none; stroke: #1f77b4; stroke-width: 1.5; stroke-linecap: square"/>
    </g>
    <g id="text_15">
     <!-- Score -->
     <g transform="translate(377.715313 58.070438) scale(0.1 -0.1)">
      <use xlink:href="#DejaVuSans-53"/>
      <use xlink:href="#DejaVuSans-63" x="63.476562"/>
      <use xlink:href="#DejaVuSans-6f" x="118.457031"/>
      <use xlink:href="#DejaVuSans-72" x="179.638672"/>
      <use xlink:href="#DejaVuSans-65" x="218.501953"/>
     </g>
    </g>
   </g>
  </g>
 </g>
 <defs>
  <clipPath id="p1aab47fb04">
   <rect x="57.6" y="41.472" width="357.12" height="266.112"/>
  </clipPath>
 </defs>
</svg>
